<mxfile host="Electron" agent="Mozilla/5.0 (X11; Linux x86_64) AppleWebKit/537.36 (KHTML, like Gecko) draw.io/24.7.17 Chrome/128.0.6613.36 Electron/32.0.1 Safari/537.36" version="24.7.17" pages="2">
  <diagram name="Tweet" id="-LVrJ1iM3qUpD3ZvsO_2">
    <mxGraphModel dx="1434" dy="835" grid="1" gridSize="10" guides="1" tooltips="1" connect="1" arrows="1" fold="1" page="1" pageScale="1" pageWidth="850" pageHeight="1100" math="0" shadow="0">
      <root>
        <mxCell id="0" />
        <mxCell id="1" parent="0" />
        <mxCell id="hBspb4sCS2C_VNHL_DJD-9" style="edgeStyle=orthogonalEdgeStyle;rounded=0;orthogonalLoop=1;jettySize=auto;html=1;entryX=0;entryY=0.5;entryDx=0;entryDy=0;" edge="1" parent="1" source="hBspb4sCS2C_VNHL_DJD-1" target="hBspb4sCS2C_VNHL_DJD-3">
          <mxGeometry relative="1" as="geometry" />
        </mxCell>
        <mxCell id="hBspb4sCS2C_VNHL_DJD-1" value="Balancer" style="rounded=1;whiteSpace=wrap;html=1;" vertex="1" parent="1">
          <mxGeometry x="240" y="340" width="120" height="60" as="geometry" />
        </mxCell>
        <mxCell id="hBspb4sCS2C_VNHL_DJD-18" style="edgeStyle=orthogonalEdgeStyle;rounded=0;orthogonalLoop=1;jettySize=auto;html=1;dashed=1;" edge="1" parent="1" source="hBspb4sCS2C_VNHL_DJD-2" target="hBspb4sCS2C_VNHL_DJD-11">
          <mxGeometry relative="1" as="geometry" />
        </mxCell>
        <mxCell id="hBspb4sCS2C_VNHL_DJD-19" style="edgeStyle=orthogonalEdgeStyle;rounded=0;orthogonalLoop=1;jettySize=auto;html=1;dashed=1;" edge="1" parent="1" source="hBspb4sCS2C_VNHL_DJD-2" target="hBspb4sCS2C_VNHL_DJD-10">
          <mxGeometry relative="1" as="geometry" />
        </mxCell>
        <mxCell id="hBspb4sCS2C_VNHL_DJD-2" value="worker" style="rounded=1;whiteSpace=wrap;html=1;" vertex="1" parent="1">
          <mxGeometry x="650" y="160" width="120" height="60" as="geometry" />
        </mxCell>
        <mxCell id="hBspb4sCS2C_VNHL_DJD-3" value="API" style="rounded=1;whiteSpace=wrap;html=1;" vertex="1" parent="1">
          <mxGeometry x="440" y="340" width="120" height="60" as="geometry" />
        </mxCell>
        <mxCell id="hBspb4sCS2C_VNHL_DJD-4" value="ws server" style="rounded=1;whiteSpace=wrap;html=1;" vertex="1" parent="1">
          <mxGeometry x="390" y="450" width="120" height="60" as="geometry" />
        </mxCell>
        <mxCell id="hBspb4sCS2C_VNHL_DJD-5" value="Actor" style="shape=umlActor;verticalLabelPosition=bottom;verticalAlign=top;html=1;outlineConnect=0;" vertex="1" parent="1">
          <mxGeometry x="30" y="340" width="30" height="60" as="geometry" />
        </mxCell>
        <mxCell id="hBspb4sCS2C_VNHL_DJD-7" value="" style="endArrow=classic;html=1;rounded=0;entryX=0;entryY=0.5;entryDx=0;entryDy=0;" edge="1" parent="1" target="hBspb4sCS2C_VNHL_DJD-1">
          <mxGeometry relative="1" as="geometry">
            <mxPoint x="80" y="369.5" as="sourcePoint" />
            <mxPoint x="180" y="369.5" as="targetPoint" />
          </mxGeometry>
        </mxCell>
        <mxCell id="hBspb4sCS2C_VNHL_DJD-8" value="&lt;h4&gt;New tweer&lt;/h4&gt;" style="edgeLabel;resizable=0;html=1;;align=center;verticalAlign=middle;" connectable="0" vertex="1" parent="hBspb4sCS2C_VNHL_DJD-7">
          <mxGeometry relative="1" as="geometry" />
        </mxCell>
        <mxCell id="hBspb4sCS2C_VNHL_DJD-10" value="DB" style="shape=cylinder3;whiteSpace=wrap;html=1;boundedLbl=1;backgroundOutline=1;size=15;" vertex="1" parent="1">
          <mxGeometry x="680" y="290" width="60" height="80" as="geometry" />
        </mxCell>
        <mxCell id="hBspb4sCS2C_VNHL_DJD-11" value="" style="shape=cylinder3;whiteSpace=wrap;html=1;boundedLbl=1;backgroundOutline=1;size=15;rotation=90;" vertex="1" parent="1">
          <mxGeometry x="470" y="115" width="60" height="150" as="geometry" />
        </mxCell>
        <mxCell id="hBspb4sCS2C_VNHL_DJD-12" style="edgeStyle=orthogonalEdgeStyle;rounded=0;orthogonalLoop=1;jettySize=auto;html=1;entryX=0;entryY=0.5;entryDx=0;entryDy=0;entryPerimeter=0;" edge="1" parent="1" source="hBspb4sCS2C_VNHL_DJD-3" target="hBspb4sCS2C_VNHL_DJD-10">
          <mxGeometry relative="1" as="geometry" />
        </mxCell>
        <mxCell id="hBspb4sCS2C_VNHL_DJD-14" style="edgeStyle=orthogonalEdgeStyle;rounded=0;orthogonalLoop=1;jettySize=auto;html=1;entryX=0.5;entryY=1;entryDx=0;entryDy=0;entryPerimeter=0;dashed=1;" edge="1" parent="1" source="hBspb4sCS2C_VNHL_DJD-3" target="hBspb4sCS2C_VNHL_DJD-11">
          <mxGeometry relative="1" as="geometry" />
        </mxCell>
        <mxCell id="hBspb4sCS2C_VNHL_DJD-17" value="Global Queue" style="text;html=1;align=center;verticalAlign=middle;whiteSpace=wrap;rounded=0;" vertex="1" parent="1">
          <mxGeometry x="440" y="130" width="130" height="30" as="geometry" />
        </mxCell>
        <mxCell id="hBspb4sCS2C_VNHL_DJD-20" style="edgeStyle=orthogonalEdgeStyle;rounded=0;orthogonalLoop=1;jettySize=auto;html=1;entryX=1.025;entryY=0.65;entryDx=0;entryDy=0;entryPerimeter=0;" edge="1" parent="1" source="hBspb4sCS2C_VNHL_DJD-2" target="hBspb4sCS2C_VNHL_DJD-4">
          <mxGeometry relative="1" as="geometry">
            <Array as="points">
              <mxPoint x="800" y="190" />
              <mxPoint x="800" y="489" />
            </Array>
          </mxGeometry>
        </mxCell>
        <mxCell id="hBspb4sCS2C_VNHL_DJD-21" value="Populate" style="text;html=1;align=center;verticalAlign=middle;whiteSpace=wrap;rounded=0;" vertex="1" parent="1">
          <mxGeometry x="780" y="160" width="60" height="30" as="geometry" />
        </mxCell>
        <mxCell id="hBspb4sCS2C_VNHL_DJD-22" value="Actor" style="shape=umlActor;verticalLabelPosition=bottom;verticalAlign=top;html=1;outlineConnect=0;" vertex="1" parent="1">
          <mxGeometry x="570" y="560" width="30" height="60" as="geometry" />
        </mxCell>
        <mxCell id="hBspb4sCS2C_VNHL_DJD-23" value="Actor" style="shape=umlActor;verticalLabelPosition=bottom;verticalAlign=top;html=1;outlineConnect=0;" vertex="1" parent="1">
          <mxGeometry x="480" y="560" width="30" height="60" as="geometry" />
        </mxCell>
        <mxCell id="hBspb4sCS2C_VNHL_DJD-24" value="Actor" style="shape=umlActor;verticalLabelPosition=bottom;verticalAlign=top;html=1;outlineConnect=0;" vertex="1" parent="1">
          <mxGeometry x="390" y="560" width="30" height="60" as="geometry" />
        </mxCell>
        <mxCell id="hBspb4sCS2C_VNHL_DJD-25" value="Actor" style="shape=umlActor;verticalLabelPosition=bottom;verticalAlign=top;html=1;outlineConnect=0;" vertex="1" parent="1">
          <mxGeometry x="300" y="560" width="30" height="60" as="geometry" />
        </mxCell>
        <mxCell id="hBspb4sCS2C_VNHL_DJD-27" style="edgeStyle=orthogonalEdgeStyle;rounded=0;orthogonalLoop=1;jettySize=auto;html=1;exitX=0;exitY=1;exitDx=0;exitDy=0;entryX=0.5;entryY=0;entryDx=0;entryDy=0;entryPerimeter=0;" edge="1" parent="1" source="hBspb4sCS2C_VNHL_DJD-4" target="hBspb4sCS2C_VNHL_DJD-25">
          <mxGeometry relative="1" as="geometry" />
        </mxCell>
        <mxCell id="hBspb4sCS2C_VNHL_DJD-28" style="edgeStyle=orthogonalEdgeStyle;rounded=0;orthogonalLoop=1;jettySize=auto;html=1;exitX=0.25;exitY=1;exitDx=0;exitDy=0;entryX=0.5;entryY=0;entryDx=0;entryDy=0;entryPerimeter=0;" edge="1" parent="1" source="hBspb4sCS2C_VNHL_DJD-4" target="hBspb4sCS2C_VNHL_DJD-24">
          <mxGeometry relative="1" as="geometry" />
        </mxCell>
        <mxCell id="hBspb4sCS2C_VNHL_DJD-29" style="edgeStyle=orthogonalEdgeStyle;rounded=0;orthogonalLoop=1;jettySize=auto;html=1;entryX=0.5;entryY=0;entryDx=0;entryDy=0;entryPerimeter=0;" edge="1" parent="1" source="hBspb4sCS2C_VNHL_DJD-4" target="hBspb4sCS2C_VNHL_DJD-23">
          <mxGeometry relative="1" as="geometry" />
        </mxCell>
        <mxCell id="hBspb4sCS2C_VNHL_DJD-30" style="edgeStyle=orthogonalEdgeStyle;rounded=0;orthogonalLoop=1;jettySize=auto;html=1;exitX=0.75;exitY=1;exitDx=0;exitDy=0;entryX=0.5;entryY=0;entryDx=0;entryDy=0;entryPerimeter=0;" edge="1" parent="1" source="hBspb4sCS2C_VNHL_DJD-4" target="hBspb4sCS2C_VNHL_DJD-22">
          <mxGeometry relative="1" as="geometry" />
        </mxCell>
      </root>
    </mxGraphModel>
  </diagram>
  <diagram id="x48Iz79ny7--fY50EX4t" name="User connects">
    <mxGraphModel dx="1195" dy="696" grid="1" gridSize="10" guides="1" tooltips="1" connect="1" arrows="1" fold="1" page="1" pageScale="1" pageWidth="850" pageHeight="1100" math="0" shadow="0">
      <root>
        <mxCell id="0" />
        <mxCell id="1" parent="0" />
        <mxCell id="glPadU3Zh_zIftAHYcvW-1" value="Actor" style="shape=umlActor;verticalLabelPosition=bottom;verticalAlign=top;html=1;outlineConnect=0;" vertex="1" parent="1">
          <mxGeometry x="30" y="380" width="30" height="60" as="geometry" />
        </mxCell>
        <mxCell id="figAU0N7U95RAVMw63Am-8" style="edgeStyle=orthogonalEdgeStyle;rounded=0;orthogonalLoop=1;jettySize=auto;html=1;exitX=1;exitY=0.5;exitDx=0;exitDy=0;entryX=0;entryY=0.5;entryDx=0;entryDy=0;" edge="1" parent="1" source="figAU0N7U95RAVMw63Am-1" target="figAU0N7U95RAVMw63Am-7">
          <mxGeometry relative="1" as="geometry" />
        </mxCell>
        <mxCell id="figAU0N7U95RAVMw63Am-1" value="Balancer" style="rounded=1;whiteSpace=wrap;html=1;" vertex="1" parent="1">
          <mxGeometry x="200" y="380" width="120" height="60" as="geometry" />
        </mxCell>
        <mxCell id="figAU0N7U95RAVMw63Am-3" value="" style="endArrow=classic;html=1;rounded=0;entryX=0;entryY=0.5;entryDx=0;entryDy=0;" edge="1" parent="1" source="glPadU3Zh_zIftAHYcvW-1" target="figAU0N7U95RAVMw63Am-1">
          <mxGeometry relative="1" as="geometry">
            <mxPoint x="60" y="419.5" as="sourcePoint" />
            <mxPoint x="200" y="420" as="targetPoint" />
          </mxGeometry>
        </mxCell>
        <mxCell id="figAU0N7U95RAVMw63Am-4" value="New connection" style="edgeLabel;resizable=0;html=1;;align=center;verticalAlign=middle;" connectable="0" vertex="1" parent="figAU0N7U95RAVMw63Am-3">
          <mxGeometry relative="1" as="geometry" />
        </mxCell>
        <mxCell id="figAU0N7U95RAVMw63Am-7" value="WSServer" style="rounded=1;whiteSpace=wrap;html=1;" vertex="1" parent="1">
          <mxGeometry x="365" y="380" width="120" height="60" as="geometry" />
        </mxCell>
        <mxCell id="figAU0N7U95RAVMw63Am-9" value="" style="shape=cylinder3;whiteSpace=wrap;html=1;boundedLbl=1;backgroundOutline=1;size=15;rotation=90;" vertex="1" parent="1">
          <mxGeometry x="595" y="235" width="60" height="200" as="geometry" />
        </mxCell>
        <mxCell id="figAU0N7U95RAVMw63Am-10" style="edgeStyle=orthogonalEdgeStyle;rounded=0;orthogonalLoop=1;jettySize=auto;html=1;entryX=0.386;entryY=0.995;entryDx=0;entryDy=0;entryPerimeter=0;" edge="1" parent="1" source="figAU0N7U95RAVMw63Am-7" target="figAU0N7U95RAVMw63Am-9">
          <mxGeometry relative="1" as="geometry" />
        </mxCell>
        <mxCell id="figAU0N7U95RAVMw63Am-11" value="Global Active users" style="text;html=1;align=center;verticalAlign=middle;whiteSpace=wrap;rounded=0;" vertex="1" parent="1">
          <mxGeometry x="555" y="270" width="130" height="30" as="geometry" />
        </mxCell>
        <mxCell id="figAU0N7U95RAVMw63Am-14" value="" style="shape=cylinder3;whiteSpace=wrap;html=1;boundedLbl=1;backgroundOutline=1;size=15;rotation=90;" vertex="1" parent="1">
          <mxGeometry x="580" y="450" width="60" height="210" as="geometry" />
        </mxCell>
        <mxCell id="figAU0N7U95RAVMw63Am-15" value="Users timeline" style="text;html=1;align=center;verticalAlign=middle;whiteSpace=wrap;rounded=0;" vertex="1" parent="1">
          <mxGeometry x="545" y="590" width="110" height="30" as="geometry" />
        </mxCell>
        <mxCell id="figAU0N7U95RAVMw63Am-19" value="Pushed to&amp;nbsp;" style="text;html=1;align=center;verticalAlign=middle;whiteSpace=wrap;rounded=0;" vertex="1" parent="1">
          <mxGeometry x="425" y="320" width="60" height="30" as="geometry" />
        </mxCell>
        <mxCell id="figAU0N7U95RAVMw63Am-20" style="edgeStyle=orthogonalEdgeStyle;rounded=0;orthogonalLoop=1;jettySize=auto;html=1;entryX=0.5;entryY=1;entryDx=0;entryDy=0;entryPerimeter=0;" edge="1" parent="1" source="figAU0N7U95RAVMw63Am-7" target="figAU0N7U95RAVMw63Am-14">
          <mxGeometry relative="1" as="geometry">
            <Array as="points">
              <mxPoint x="420" y="555" />
            </Array>
          </mxGeometry>
        </mxCell>
        <mxCell id="figAU0N7U95RAVMw63Am-22" value="Creates" style="text;html=1;align=center;verticalAlign=middle;whiteSpace=wrap;rounded=0;" vertex="1" parent="1">
          <mxGeometry x="425" y="520" width="60" height="30" as="geometry" />
        </mxCell>
        <mxCell id="figAU0N7U95RAVMw63Am-23" value="" style="shape=cylinder3;whiteSpace=wrap;html=1;boundedLbl=1;backgroundOutline=1;size=15;rotation=90;" vertex="1" parent="1">
          <mxGeometry x="590" y="350" width="60" height="200" as="geometry" />
        </mxCell>
        <mxCell id="figAU0N7U95RAVMw63Am-24" value="Users stream" style="text;html=1;align=center;verticalAlign=middle;whiteSpace=wrap;rounded=0;" vertex="1" parent="1">
          <mxGeometry x="580" y="490" width="60" height="30" as="geometry" />
        </mxCell>
        <mxCell id="figAU0N7U95RAVMw63Am-25" style="edgeStyle=orthogonalEdgeStyle;rounded=0;orthogonalLoop=1;jettySize=auto;html=1;exitX=1;exitY=1;exitDx=0;exitDy=0;entryX=0.706;entryY=1.004;entryDx=0;entryDy=0;entryPerimeter=0;" edge="1" parent="1" source="figAU0N7U95RAVMw63Am-7" target="figAU0N7U95RAVMw63Am-23">
          <mxGeometry relative="1" as="geometry" />
        </mxCell>
        <mxCell id="figAU0N7U95RAVMw63Am-26" value="Subscribe" style="text;html=1;align=center;verticalAlign=middle;whiteSpace=wrap;rounded=0;" vertex="1" parent="1">
          <mxGeometry x="470" y="480" width="60" height="30" as="geometry" />
        </mxCell>
      </root>
    </mxGraphModel>
  </diagram>
</mxfile>
